<svg width="512" height="512" viewBox="0 0 512 512" fill="none" xmlns="http://www.w3.org/2000/svg">
  <path
    d="M248.099 30.6286C253.053 27.7649 259.159 27.7649 264.114 30.6286L416.22 118.554C421.166 121.413 424.213 126.693 424.213 132.406V379.594C424.213 385.307 421.166 390.587 416.22 393.446L264.114 481.371C259.159 484.235 253.053 484.235 248.099 481.371L95.9927 393.446C91.0464 390.587 88 385.307 88 379.594V132.406C88 126.693 91.0464 121.413 95.9927 118.554L248.099 30.6286Z"
    fill="#00A550" />
  <path
    d="M248.653 74.6614C253.603 71.8033 259.703 71.8032 264.653 74.6614L381.149 141.92C386.099 144.779 389.149 150.061 389.149 155.777V290.295C389.149 296.011 386.099 301.293 381.149 304.151L264.653 371.411C259.703 374.269 253.603 374.269 248.653 371.411L132.157 304.151C127.206 301.293 124.157 296.011 124.157 290.295V155.777C124.157 150.061 127.206 144.779 132.157 141.92L248.653 74.6614Z"
    fill="#ffffff" />
</svg>