<svg width="162" height="26" viewBox="0 0 162 26" fill="none" xmlns="http://www.w3.org/2000/svg">
  <g clip-path="url(#clip0_54_3)">
    <rect width="162" height="26" rx="5" transform="matrix(-1 0 0 1 162 0)" fill="#555555" />
    <path
      d="M-6.98082 24.36C-0.788824 10.7844 -1.67083 -2.93304 -1.67083 -2.93304C-1.67083 -2.93304 1.85316 -4.02543 11.4202 2.61398C15.1472 5.21131 16.8002 5.94744 19.1302 6.75877C20.4772 7.22731 21.9322 7.46692 22.1742 9.1601C22.4732 11.2381 24.2582 17.7588 26.9572 22.5036C29.6552 27.2483 30.8852 31.073 29.8892 32.9465C29.8892 32.9465 30.2602 31.4374 27.0172 31.5242C24.3802 31.5864 20.9972 31.7371 14.0332 29.5229C8.08417 27.641 1.65616 24.7758 -6.99984 24.3487L-6.98082 24.36Z"
      fill="url(#paint0_linear_54_3)" />
    <path
      d="M26.989 22.4917C25.732 20.2907 24.654 17.6971 23.876 15.3382C23.57 15.2461 23.264 15.1541 22.951 15.0291C20.621 14.2177 14.506 12.3555 10.76 9.74693C3.19102 4.48484 -0.587974 4.08138 -1.85197 4.12972C-2.30097 9.36857 -3.56899 16.8785 -6.96799 24.3369C1.66901 24.7527 8.12902 27.6074 14.065 29.5111C21.029 31.7252 24.399 31.5964 27.049 31.5123C30.311 31.4368 29.921 32.9347 29.921 32.9347C30.911 31.0281 29.7 27.2147 26.989 22.4917Z"
      fill="url(#paint1_linear_54_3)" />
    <path
      d="M-1.85191 4.12972C-2.09591 7.00126 -2.5959 10.5715 -3.5479 14.4318C3.3391 15.4598 8.50309 18.11 13.3671 19.9988C19.6601 22.4342 22.8331 22.4232 25.2971 22.4354C26.1651 22.4474 26.7531 22.5872 27.1421 22.7572C27.0911 22.6687 27.0401 22.5802 26.9891 22.4917C25.7321 20.2907 24.6541 17.6971 23.8761 15.3382C23.5701 15.2461 23.2641 15.1541 22.9511 15.0291C20.6211 14.2177 14.5061 12.3555 10.7601 9.74693C3.19109 4.48484 -0.587906 4.08138 -1.85191 4.12972Z"
      fill="url(#paint2_linear_54_3)" />
    <path
      d="M35.5581 28.6339C34.4491 24.8219 31.9941 18.7857 31.7961 17.3236C31.2871 13.4541 33.3371 11.4964 33.3371 11.4964C33.3371 11.4964 31.5111 11.6247 27.9241 11.0703C24.8091 10.5882 22.7281 9.65965 22.2241 9.42223C22.5611 11.7861 24.3911 17.9233 26.9811 22.4581C29.6661 27.1368 30.8901 30.9285 29.9381 32.8575C29.7401 33.5022 28.9171 33.809 28.9171 33.809C30.0081 35.1518 33.2771 33.8803 34.1261 33.8811C35.1601 33.8735 35.0771 34.7611 34.7511 35.0968C34.6681 35.1944 34.5211 35.3131 34.5211 35.3131C36.0731 34.5555 36.5591 32.1482 35.5391 28.6227L35.5581 28.6339Z"
      fill="url(#paint3_linear_54_3)" />
    <path
      d="M11.2681 14.5833C11.2681 14.5833 8.90806 10.0957 7.19206 7.53716C3.25506 1.65602 -1.67093 -2.93304 -1.67093 -2.93304C-1.67093 -2.93304 -1.04493 10.6931 -6.98093 24.36C-4.42793 24.4831 11.2681 14.5833 11.2681 14.5833Z"
      fill="#F10017" />
    <path style="mix-blend-mode:multiply" opacity="0.55"
      d="M-6.98082 24.36C-0.788824 10.7844 -1.67083 -2.93304 -1.67083 -2.93304C-1.67083 -2.93304 1.85316 -4.02543 11.4202 2.61398C15.1472 5.21131 16.8002 5.94744 19.1302 6.75877C20.4772 7.22731 21.9322 7.46692 22.1742 9.1601C22.4732 11.2381 24.2582 17.7588 26.9572 22.5036C29.6552 27.2483 30.8852 31.073 29.8892 32.9465C29.8892 32.9465 30.2602 31.4374 27.0172 31.5242C24.3802 31.5864 20.9972 31.7371 14.0332 29.5229C8.08417 27.641 1.65616 24.7758 -6.99984 24.3487L-6.98082 24.36Z"
      fill="url(#paint4_linear_54_3)" />
    <path
      d="M31.799 17.3272C31.767 17.0744 31.736 16.8215 31.723 16.58L23.839 15.4064C24.662 17.7331 25.733 20.2937 26.971 22.4835C27.379 23.1914 27.73 23.8656 28.062 24.5286C29.402 25.0519 32.255 26.0241 34.656 25.8817C33.457 22.3977 31.933 18.4592 31.78 17.3159L31.799 17.3272Z"
      fill="url(#paint5_linear_54_3)" />
    <path
      d="M24.2642 16.5609C25.6872 17.1622 28.8982 18.3149 31.9492 18.028C31.8602 17.7414 31.8152 17.5104 31.7962 17.3236C31.2872 13.4541 33.3372 11.4964 33.3372 11.4964C33.3372 11.4964 31.5112 11.6247 27.9242 11.0703C24.8092 10.5882 22.7282 9.65965 22.2242 9.42223C22.4272 10.8296 23.1602 13.572 24.2762 16.5392L24.2642 16.5609Z"
      fill="url(#paint6_linear_54_3)" />
    <path
      d="M41.5669 18L43.02 10H44.1138L42.6606 18H41.5669ZM37.9966 15.9375L38.1997 14.8438H44.356L44.1528 15.9375H37.9966ZM38.7544 18L40.2075 10H41.3013L39.8481 18H38.7544ZM38.5122 13.1562L38.7114 12.0625H44.8677L44.6685 13.1562H38.5122ZM53.1284 12.2383C53.1388 11.8763 53.0282 11.599 52.7964 11.4063C52.5672 11.2135 52.2378 11.1172 51.8081 11.1172C51.506 11.1172 51.2391 11.1628 51.0073 11.2539C50.7782 11.3424 50.5933 11.4661 50.4526 11.625C50.312 11.7812 50.2248 11.9596 50.1909 12.1602C50.1623 12.3242 50.1766 12.4674 50.2339 12.5898C50.2912 12.7122 50.3784 12.8164 50.4956 12.9023C50.6154 12.9883 50.7508 13.0599 50.9019 13.1172C51.0555 13.1745 51.2118 13.2227 51.3706 13.2617L52.0894 13.4492C52.3758 13.5195 52.6493 13.6146 52.9097 13.7344C53.1701 13.8516 53.3953 14.0026 53.5854 14.1875C53.7782 14.3698 53.9188 14.5898 54.0073 14.8477C54.0959 15.1055 54.1102 15.4076 54.0503 15.7539C53.9722 16.2227 53.7834 16.6354 53.4839 16.9922C53.187 17.3464 52.7964 17.6237 52.312 17.8242C51.8302 18.0221 51.269 18.1211 50.6284 18.1211C50.0086 18.1211 49.4852 18.0247 49.0581 17.832C48.631 17.6367 48.3185 17.3542 48.1206 16.9844C47.9253 16.6146 47.8628 16.1654 47.9331 15.6367H49.3589C49.3302 15.9154 49.3758 16.1471 49.4956 16.332C49.618 16.5169 49.7938 16.6549 50.0229 16.7461C50.2521 16.8372 50.5177 16.8828 50.8198 16.8828C51.1349 16.8828 51.4201 16.8359 51.6753 16.7422C51.9305 16.6458 52.1388 16.513 52.3003 16.3437C52.4644 16.1719 52.5646 15.9714 52.6011 15.7422C52.6375 15.5365 52.6076 15.3646 52.5112 15.2266C52.4149 15.0885 52.2651 14.974 52.062 14.8828C51.8615 14.7891 51.6219 14.7057 51.3433 14.6328L50.4761 14.3984C49.8485 14.2266 49.3719 13.9687 49.0464 13.625C48.7235 13.2812 48.6089 12.8229 48.7026 12.25C48.7808 11.776 48.9774 11.3633 49.2925 11.0117C49.6076 10.6576 50.0021 10.3828 50.4761 10.1875C50.95 9.98958 51.4683 9.89062 52.0308 9.89062C52.5985 9.89062 53.0789 9.98958 53.4722 10.1875C53.868 10.3854 54.1571 10.6615 54.3394 11.0156C54.5243 11.3672 54.5854 11.7747 54.5229 12.2383H53.1284ZM58.9048 12L58.7212 13.0937H55.2759L55.4556 12H58.9048ZM56.5415 10.5625H57.9556L57.0181 16.1953C56.9894 16.3854 56.9946 16.5313 57.0337 16.6328C57.0754 16.7318 57.1418 16.7995 57.2329 16.8359C57.3267 16.8724 57.4321 16.8906 57.5493 16.8906C57.6353 16.8906 57.716 16.8841 57.7915 16.8711C57.867 16.8555 57.9269 16.8437 57.9712 16.8359L58.0337 17.9414C57.9478 17.9674 57.8319 17.9961 57.686 18.0273C57.5428 18.0586 57.3709 18.0768 57.1704 18.082C56.811 18.0898 56.4985 18.0352 56.2329 17.918C55.9699 17.7982 55.7772 17.6146 55.6548 17.3672C55.535 17.1172 55.5076 16.8047 55.5728 16.4297L56.5415 10.5625ZM60.7983 18.1211C60.4181 18.1211 60.0874 18.0534 59.8062 17.918C59.5249 17.7799 59.3179 17.5768 59.1851 17.3086C59.0549 17.0404 59.0223 16.7096 59.0874 16.3164C59.1447 15.9779 59.2541 15.6979 59.4155 15.4766C59.5796 15.2552 59.7801 15.0781 60.0171 14.9453C60.2567 14.8099 60.5171 14.7083 60.7983 14.6406C61.0822 14.5729 61.3713 14.5234 61.6655 14.4922C62.0249 14.4557 62.3153 14.4219 62.5366 14.3906C62.7606 14.3594 62.9285 14.3125 63.0405 14.25C63.1525 14.1849 63.2202 14.0859 63.2437 13.9531V13.9297C63.2905 13.6354 63.2437 13.4076 63.103 13.2461C62.9624 13.0846 62.728 13.0039 62.3999 13.0039C62.0562 13.0039 61.7671 13.0794 61.5327 13.2305C61.2983 13.3815 61.1278 13.5599 61.021 13.7656L59.7397 13.5781C59.9012 13.2135 60.1226 12.9089 60.4038 12.6641C60.6851 12.4167 61.0093 12.2318 61.3765 12.1094C61.7463 11.9844 62.1408 11.9219 62.5601 11.9219C62.8465 11.9219 63.1265 11.9557 63.3999 12.0234C63.6759 12.0911 63.9194 12.2031 64.1304 12.3594C64.3439 12.513 64.5002 12.7227 64.5991 12.9883C64.7007 13.2539 64.7176 13.5859 64.6499 13.9844L63.9819 18H62.6226L62.7632 17.1758H62.7163C62.6043 17.3424 62.4585 17.4987 62.2788 17.6445C62.0991 17.7878 61.8856 17.9036 61.6382 17.9922C61.3908 18.0781 61.1108 18.1211 60.7983 18.1211ZM61.3335 17.082C61.6174 17.082 61.8726 17.026 62.0991 16.9141C62.3257 16.7995 62.5119 16.6484 62.6577 16.4609C62.8035 16.2734 62.8947 16.069 62.9312 15.8477L63.0483 15.1406C62.9963 15.1771 62.9155 15.2109 62.8062 15.2422C62.6968 15.2734 62.5744 15.3008 62.439 15.3242C62.3062 15.3477 62.1746 15.3685 62.0444 15.3867C61.9142 15.4049 61.8022 15.4206 61.7085 15.4336C61.4924 15.4622 61.2944 15.5091 61.1147 15.5742C60.9377 15.6393 60.7905 15.7305 60.6733 15.8477C60.5588 15.9622 60.4871 16.1107 60.4585 16.293C60.4168 16.5508 60.478 16.7474 60.6421 16.8828C60.8062 17.0156 61.0366 17.082 61.3335 17.082ZM67.4038 14.4844L66.8257 18H65.4077L66.4077 12H67.7632L67.5913 13.0195H67.6655C67.853 12.6836 68.116 12.4167 68.4546 12.2187C68.7931 12.0208 69.1877 11.9219 69.6382 11.9219C70.047 11.9219 70.3908 12.0104 70.6694 12.1875C70.9481 12.362 71.146 12.6185 71.2632 12.957C71.3804 13.293 71.3986 13.7005 71.3179 14.1797L70.6772 18H69.2632L69.8608 14.3984C69.9285 14 69.8778 13.6875 69.7085 13.4609C69.5418 13.2318 69.2736 13.1172 68.9038 13.1172C68.6564 13.1172 68.4285 13.1719 68.2202 13.2812C68.0119 13.388 67.8361 13.543 67.6929 13.7461C67.5522 13.9492 67.4559 14.1953 67.4038 14.4844ZM74.3257 18.1055C73.8543 18.1055 73.452 17.9844 73.1187 17.7422C72.7853 17.5 72.5483 17.1484 72.4077 16.6875C72.2697 16.2266 72.2541 15.6667 72.3608 15.0078C72.4728 14.3411 72.6772 13.7786 72.9741 13.3203C73.271 12.8594 73.6252 12.5117 74.0366 12.2773C74.4507 12.0404 74.8882 11.9219 75.3491 11.9219C75.7033 11.9219 75.9832 11.9818 76.189 12.1016C76.3973 12.2187 76.5535 12.3607 76.6577 12.5273C76.7619 12.6914 76.8387 12.8464 76.8882 12.9922H76.9468L77.4429 10H78.8608L77.5327 18H76.1421L76.3022 17.0547H76.2163C76.1174 17.2005 75.9858 17.3555 75.8218 17.5195C75.6577 17.681 75.4533 17.819 75.2085 17.9336C74.9637 18.0482 74.6694 18.1055 74.3257 18.1055ZM74.8882 16.9453C75.1903 16.9453 75.4611 16.8646 75.7007 16.7031C75.9429 16.5391 76.1447 16.3112 76.3062 16.0195C76.4676 15.7279 76.5809 15.388 76.646 15C76.7111 14.612 76.7111 14.2747 76.646 13.9883C76.5809 13.7018 76.4546 13.4792 76.2671 13.3203C76.0796 13.1615 75.8335 13.082 75.5288 13.082C75.2163 13.082 74.9416 13.1641 74.7046 13.3281C74.4702 13.4922 74.2775 13.7187 74.1265 14.0078C73.9754 14.2969 73.8687 14.6276 73.8062 15C73.7437 15.375 73.7397 15.7096 73.7944 16.0039C73.8517 16.2956 73.9702 16.526 74.1499 16.6953C74.3322 16.862 74.5783 16.9453 74.8882 16.9453ZM83.521 18L82.5913 10H84.1499L84.6187 15.8789H84.6929L87.2046 10H88.6226L89.1929 15.8828H89.2632L91.6772 10H93.2358L89.6499 18H88.2202L87.5562 12.3867H87.4937L84.9507 18H83.521ZM92.8501 18L93.8501 12H95.2642L94.2642 18H92.8501ZM94.7642 11.1406C94.5376 11.1406 94.3501 11.0651 94.2017 10.9141C94.0532 10.763 93.9881 10.582 94.0063 10.3711C94.0246 10.1602 94.1196 9.97917 94.2915 9.82812C94.466 9.67708 94.6652 9.60156 94.8892 9.60156C95.1157 9.60156 95.3019 9.67708 95.4478 9.82812C95.5962 9.97917 95.6613 10.1602 95.6431 10.3711C95.6274 10.582 95.5324 10.763 95.3579 10.9141C95.186 11.0651 94.9881 11.1406 94.7642 11.1406ZM99.7144 12L99.5308 13.0937H96.0854L96.2651 12H99.7144ZM97.3511 10.5625H98.7651L97.8276 16.1953C97.799 16.3854 97.8042 16.5313 97.8433 16.6328C97.8849 16.7318 97.9513 16.7995 98.0425 16.8359C98.1362 16.8724 98.2417 16.8906 98.3589 16.8906C98.4448 16.8906 98.5256 16.8841 98.6011 16.8711C98.6766 16.8555 98.7365 16.8437 98.7808 16.8359L98.8433 17.9414C98.7573 17.9674 98.6414 17.9961 98.4956 18.0273C98.3524 18.0586 98.1805 18.0768 97.98 18.082C97.6206 18.0898 97.3081 18.0352 97.0425 17.918C96.7795 17.7982 96.5868 17.6146 96.4644 17.3672C96.3446 17.1172 96.3172 16.8047 96.3823 16.4297L97.3511 10.5625ZM102.026 14.4844L101.448 18H100.03L101.358 10H102.745L102.245 13.0195H102.319C102.509 12.6784 102.768 12.4102 103.096 12.2148C103.427 12.0195 103.824 11.9219 104.288 11.9219C104.699 11.9219 105.045 12.0091 105.327 12.1836C105.608 12.3581 105.806 12.6133 105.92 12.9492C106.038 13.2852 106.057 13.6953 105.979 14.1797L105.338 18H103.92L104.522 14.3984C104.587 13.9948 104.534 13.681 104.362 13.457C104.193 13.2305 103.924 13.1172 103.557 13.1172C103.305 13.1172 103.071 13.1719 102.858 13.2812C102.644 13.388 102.465 13.543 102.319 13.7461C102.176 13.9492 102.078 14.1953 102.026 14.4844ZM109.563 18L110.891 10H113.891C114.506 10 115.003 10.1146 115.383 10.3437C115.764 10.5703 116.028 10.8841 116.176 11.2852C116.325 11.6836 116.356 12.138 116.27 12.6484C116.187 13.1615 116.003 13.6172 115.719 14.0156C115.438 14.4141 115.067 14.7279 114.606 14.957C114.145 15.1836 113.606 15.2969 112.989 15.2969H111L111.2 14.1055H112.993C113.352 14.1055 113.657 14.043 113.907 13.918C114.159 13.793 114.359 13.6211 114.504 13.4023C114.65 13.1836 114.747 12.9323 114.793 12.6484C114.838 12.3646 114.823 12.1146 114.75 11.8984C114.678 11.6823 114.536 11.5143 114.325 11.3945C114.116 11.2721 113.831 11.2109 113.469 11.2109H112.141L111.012 18H109.563ZM118.172 18.1211C117.792 18.1211 117.461 18.0534 117.18 17.918C116.899 17.7799 116.692 17.5768 116.559 17.3086C116.429 17.0404 116.396 16.7096 116.461 16.3164C116.519 15.9779 116.628 15.6979 116.79 15.4766C116.954 15.2552 117.154 15.0781 117.391 14.9453C117.631 14.8099 117.891 14.7083 118.172 14.6406C118.456 14.5729 118.745 14.5234 119.04 14.4922C119.399 14.4557 119.689 14.4219 119.911 14.3906C120.135 14.3594 120.303 14.3125 120.415 14.25C120.527 14.1849 120.594 14.0859 120.618 13.9531V13.9297C120.665 13.6354 120.618 13.4076 120.477 13.2461C120.336 13.0846 120.102 13.0039 119.774 13.0039C119.43 13.0039 119.141 13.0794 118.907 13.2305C118.672 13.3815 118.502 13.5599 118.395 13.7656L117.114 13.5781C117.275 13.2135 117.497 12.9089 117.778 12.6641C118.059 12.4167 118.383 12.2318 118.75 12.1094C119.12 11.9844 119.515 11.9219 119.934 11.9219C120.221 11.9219 120.5 11.9557 120.774 12.0234C121.05 12.0911 121.293 12.2031 121.504 12.3594C121.718 12.513 121.874 12.7227 121.973 12.9883C122.075 13.2539 122.092 13.5859 122.024 13.9844L121.356 18H119.997L120.137 17.1758H120.09C119.978 17.3424 119.833 17.4987 119.653 17.6445C119.473 17.7878 119.26 17.9036 119.012 17.9922C118.765 18.0781 118.485 18.1211 118.172 18.1211ZM118.708 17.082C118.991 17.082 119.247 17.026 119.473 16.9141C119.7 16.7995 119.886 16.6484 120.032 16.4609C120.178 16.2734 120.269 16.069 120.305 15.8477L120.422 15.1406C120.37 15.1771 120.29 15.2109 120.18 15.2422C120.071 15.2734 119.948 15.3008 119.813 15.3242C119.68 15.3477 119.549 15.3685 119.418 15.3867C119.288 15.4049 119.176 15.4206 119.083 15.4336C118.866 15.4622 118.668 15.5091 118.489 15.5742C118.312 15.6393 118.165 15.7305 118.047 15.8477C117.933 15.9622 117.861 16.1107 117.833 16.293C117.791 16.5508 117.852 16.7474 118.016 16.8828C118.18 17.0156 118.411 17.082 118.708 17.082ZM125.52 10L124.192 18H122.778L124.106 10H125.52ZM128.287 18.1172C127.685 18.1172 127.188 17.9922 126.794 17.7422C126.401 17.4896 126.125 17.1328 125.966 16.6719C125.81 16.2083 125.784 15.6628 125.888 15.0352C125.99 14.418 126.197 13.8763 126.509 13.4102C126.822 12.9414 127.212 12.5768 127.681 12.3164C128.153 12.0534 128.673 11.9219 129.244 11.9219C129.613 11.9219 129.953 11.9818 130.263 12.1016C130.573 12.2187 130.835 12.401 131.048 12.6484C131.262 12.8958 131.409 13.2109 131.49 13.5937C131.57 13.974 131.567 14.4271 131.478 14.9531L131.412 15.3867H126.49L126.642 14.4336H130.205C130.251 14.1628 130.236 13.9219 130.158 13.7109C130.08 13.4974 129.949 13.3294 129.767 13.207C129.585 13.0846 129.357 13.0234 129.083 13.0234C128.805 13.0234 128.544 13.0951 128.302 13.2383C128.063 13.3789 127.861 13.5612 127.697 13.7852C127.533 14.0091 127.429 14.2448 127.384 14.4922L127.224 15.4062C127.167 15.7812 127.18 16.0872 127.263 16.3242C127.347 16.5612 127.492 16.7357 127.701 16.8477C127.909 16.9596 128.172 17.0156 128.49 17.0156C128.698 17.0156 128.891 16.987 129.068 16.9297C129.245 16.8724 129.403 16.7865 129.541 16.6719C129.681 16.5547 129.798 16.4115 129.892 16.2422L131.185 16.3906C131.042 16.7396 130.832 17.0443 130.556 17.3047C130.28 17.5625 129.949 17.763 129.564 17.9062C129.181 18.0469 128.755 18.1172 128.287 18.1172ZM137.65 13.5859L136.349 13.7266C136.336 13.5937 136.296 13.4701 136.228 13.3555C136.16 13.2409 136.059 13.1497 135.923 13.082C135.791 13.0117 135.619 12.9766 135.408 12.9766C135.1 12.9766 134.831 13.0456 134.599 13.1836C134.367 13.3216 134.236 13.4987 134.205 13.7148C134.176 13.8763 134.215 14.0078 134.322 14.1094C134.429 14.2109 134.626 14.2969 134.916 14.3672L135.908 14.5859C136.455 14.7083 136.848 14.9062 137.087 15.1797C137.33 15.4531 137.414 15.8112 137.341 16.2539C137.279 16.6237 137.117 16.9492 136.857 17.2305C136.597 17.5091 136.263 17.7266 135.857 17.8828C135.453 18.0391 135.005 18.1172 134.513 18.1172C133.766 18.1172 133.19 17.9622 132.787 17.6523C132.386 17.3398 132.186 16.9102 132.189 16.3633L133.58 16.2305C133.595 16.5013 133.69 16.7057 133.865 16.8437C134.039 16.9792 134.281 17.0482 134.591 17.0508C134.94 17.0534 135.235 16.9805 135.474 16.832C135.716 16.681 135.853 16.4974 135.884 16.2812C135.91 16.1198 135.87 15.9883 135.763 15.8867C135.659 15.7852 135.473 15.7044 135.205 15.6445L134.22 15.4297C133.663 15.3073 133.266 15.1003 133.029 14.8086C132.794 14.5143 132.715 14.1432 132.791 13.6953C132.853 13.3307 133.005 13.0169 133.248 12.7539C133.492 12.4883 133.806 12.2839 134.189 12.1406C134.572 11.9948 135 11.9219 135.474 11.9219C136.188 11.9219 136.725 12.0716 137.087 12.3711C137.449 12.6706 137.637 13.0755 137.65 13.5859ZM142.21 12L142.027 13.0937H138.582L138.761 12H142.21ZM139.847 10.5625H141.261L140.324 16.1953C140.295 16.3854 140.3 16.5313 140.339 16.6328C140.381 16.7318 140.447 16.7995 140.539 16.8359C140.632 16.8724 140.738 16.8906 140.855 16.8906C140.941 16.8906 141.022 16.8841 141.097 16.8711C141.173 16.8555 141.233 16.8437 141.277 16.8359L141.339 17.9414C141.253 17.9674 141.138 17.9961 140.992 18.0273C140.848 18.0586 140.677 18.0768 140.476 18.082C140.117 18.0898 139.804 18.0352 139.539 17.918C139.276 17.7982 139.083 17.6146 138.96 17.3672C138.841 17.1172 138.813 16.8047 138.878 16.4297L139.847 10.5625ZM142.393 18L143.393 12H144.807L143.807 18H142.393ZM144.307 11.1406C144.081 11.1406 143.893 11.0651 143.745 10.9141C143.596 10.763 143.531 10.582 143.549 10.3711C143.568 10.1602 143.663 9.97917 143.834 9.82812C144.009 9.67708 144.208 9.60156 144.432 9.60156C144.659 9.60156 144.845 9.67708 144.991 9.82812C145.139 9.97917 145.204 10.1602 145.186 10.3711C145.17 10.582 145.075 10.763 144.901 10.9141C144.729 11.0651 144.531 11.1406 144.307 11.1406ZM147.261 14.4844L146.683 18H145.265L146.265 12H147.621L147.449 13.0195H147.523C147.71 12.6836 147.973 12.4167 148.312 12.2187C148.651 12.0208 149.045 11.9219 149.496 11.9219C149.904 11.9219 150.248 12.0104 150.527 12.1875C150.806 12.362 151.003 12.6185 151.121 12.957C151.238 13.293 151.256 13.7005 151.175 14.1797L150.535 18H149.121L149.718 14.3984C149.786 14 149.735 13.6875 149.566 13.4609C149.399 13.2318 149.131 13.1172 148.761 13.1172C148.514 13.1172 148.286 13.1719 148.078 13.2812C147.869 13.388 147.694 13.543 147.55 13.7461C147.41 13.9492 147.313 14.1953 147.261 14.4844ZM154.605 18.1172C154.003 18.1172 153.506 17.9922 153.113 17.7422C152.72 17.4896 152.444 17.1328 152.285 16.6719C152.128 16.2083 152.102 15.6628 152.207 15.0352C152.308 14.418 152.515 13.8763 152.828 13.4102C153.14 12.9414 153.531 12.5768 154 12.3164C154.471 12.0534 154.992 11.9219 155.562 11.9219C155.932 11.9219 156.272 11.9818 156.582 12.1016C156.891 12.2187 157.153 12.401 157.367 12.6484C157.58 12.8958 157.727 13.2109 157.808 13.5937C157.889 13.974 157.885 14.4271 157.796 14.9531L157.73 15.3867H152.808L152.96 14.4336H156.523C156.57 14.1628 156.554 13.9219 156.476 13.7109C156.398 13.4974 156.268 13.3294 156.085 13.207C155.903 13.0846 155.675 13.0234 155.402 13.0234C155.123 13.0234 154.863 13.0951 154.621 13.2383C154.381 13.3789 154.179 13.5612 154.015 13.7852C153.851 14.0091 153.747 14.2448 153.703 14.4922L153.542 15.4062C153.485 15.7812 153.498 16.0872 153.582 16.3242C153.665 16.5612 153.811 16.7357 154.019 16.8477C154.227 16.9596 154.49 17.0156 154.808 17.0156C155.016 17.0156 155.209 16.987 155.386 16.9297C155.563 16.8724 155.721 16.7865 155.859 16.6719C156 16.5547 156.117 16.4115 156.21 16.2422L157.503 16.3906C157.36 16.7396 157.151 17.0443 156.875 17.3047C156.598 17.5625 156.268 17.763 155.882 17.9062C155.5 18.0469 155.074 18.1172 154.605 18.1172Z"
      fill="white" />
  </g>
  <defs>
    <linearGradient id="paint0_linear_54_3" x1="4.98717" y1="13.1797" x2="27.5522" y2="21.2545"
      gradientUnits="userSpaceOnUse">
      <stop stop-color="#1E1E1E" />
      <stop offset="1" stop-color="#2B2B2B" />
    </linearGradient>
    <linearGradient id="paint1_linear_54_3" x1="10.693" y1="17.844" x2="33.263" y2="24.3135"
      gradientUnits="userSpaceOnUse">
      <stop stop-color="#15652F" />
      <stop offset="0.84" stop-color="#35A349" />
      <stop offset="0.87" stop-color="#319B46" />
      <stop offset="0.93" stop-color="#28883E" />
      <stop offset="0.99" stop-color="#1A6730" />
      <stop offset="1" stop-color="#18632F" />
    </linearGradient>
    <linearGradient id="paint2_linear_54_3" x1="24.4711" y1="14.282" x2="2.51809" y2="10.6036"
      gradientUnits="userSpaceOnUse">
      <stop stop-color="#E6E7E8" />
      <stop offset="0.39" stop-color="#BBBDBF" />
      <stop offset="0.5" stop-color="#AAACAE" />
      <stop offset="0.7" stop-color="#7F8183" />
      <stop offset="0.94" stop-color="#474A4C" />
    </linearGradient>
    <linearGradient id="paint3_linear_54_3" x1="30.3831" y1="22.4942" x2="39.5531" y2="23.9223"
      gradientUnits="userSpaceOnUse">
      <stop stop-color="#15652F" />
      <stop offset="0.84" stop-color="#35A349" />
      <stop offset="0.87" stop-color="#319B46" />
      <stop offset="0.93" stop-color="#28883E" />
      <stop offset="0.99" stop-color="#1A6730" />
      <stop offset="1" stop-color="#18632F" />
    </linearGradient>
    <linearGradient id="paint4_linear_54_3" x1="14.1832" y1="14.9616" x2="26.8342" y2="10.3437"
      gradientUnits="userSpaceOnUse">
      <stop stop-color="#4F4D4D" />
      <stop offset="0.04" stop-color="#5B5959" />
      <stop offset="0.11" stop-color="#7B7A7A" />
      <stop offset="0.18" stop-color="#9F9F9F" />
      <stop offset="0.27" stop-color="#9A9898" />
      <stop offset="0.33" stop-color="#949090" />
      <stop offset="0.4" stop-color="#9F9C9C" />
      <stop offset="0.54" stop-color="#C1C0C0" />
      <stop offset="0.61" stop-color="#BAB9B9" />
      <stop offset="0.69" stop-color="#A7A6A6" />
      <stop offset="0.79" stop-color="#888787" />
      <stop offset="0.91" stop-color="#5E5C5C" />
      <stop offset="0.94" stop-color="#4F4D4D" />
    </linearGradient>
    <linearGradient id="paint5_linear_54_3" x1="34.978" y1="17.7882" x2="23.986" y2="21.7123"
      gradientUnits="userSpaceOnUse">
      <stop stop-color="#E6E7E8" />
      <stop offset="0.39" stop-color="#BBBDBF" />
      <stop offset="0.5" stop-color="#AAACAE" />
      <stop offset="0.7" stop-color="#7F8183" />
      <stop offset="0.94" stop-color="#474A4C" />
    </linearGradient>
    <linearGradient id="paint6_linear_54_3" x1="21.8902" y1="13.9384" x2="35.5562" y2="14.9472"
      gradientUnits="userSpaceOnUse">
      <stop stop-color="#1E1E1E" />
      <stop offset="1" stop-color="#2B2B2B" />
    </linearGradient>
    <clipPath id="clip0_54_3">
      <rect width="162" height="26" rx="5" transform="matrix(-1 0 0 1 162 0)" fill="white" />
    </clipPath>
  </defs>
</svg>