<svg width="751" height="800" viewBox="0 0 751 800" fill="none" xmlns="http://www.w3.org/2000/svg">
  <path
    d="M31 705.8C-78.3 684 -192.4 673.6 -304.3 686.4C-355.5 692.1 -406 703 -455 719.8V800H388.8C272.9 766.8 158 731.9 41.2 707.8C37.8 707.1 34.4 706.5 31 705.8Z"
    fill="#008C44" />
  <path
    d="M1145 0H-455V719.8C-406 703 -355.5 692 -304.3 686.3C-192.4 673.6 -78.3 683.9 31 705.7C34.4 706.4 37.8 707.1 41.2 707.7C158 731.7 272.9 766.7 388.8 799.9H1145V0Z"
    fill="#009649" />
  <path
    d="M23.4 581C26.6 581.8 29.8 582.7 32.9 583.5C229.1 636 421.6 717 626.4 760.1C800.6 796.7 975.9 789.3 1145 749.9V0H-455V574.9C-402.7 557.3 -348.5 547.2 -293.9 544C-186.6 537.4 -79.3 554.2 23.4 581Z"
    fill="#009B4B" />
  <path
    d="M-455 0V429.4C-399.4 411 -341.5 402.1 -283.6 401.7C-180.8 400.9 -80.4 424.4 15.7 456.2C18.7 457.2 21.6 458.2 24.6 459.2C208.2 521.2 390.3 605.3 587 651.3C773.7 695 963.3 685.7 1144.9 638.7V0H-455Z"
    fill="#00A04E" />
  <path
    d="M-273.2 259.4C-175 265.4 -81.3 294.6 8.10001 331.5C10.9 332.6 13.6 333.8 16.4 334.9C187.4 406.5 359.1 493.4 547.7 542.6C746.5 594.4 951.1 583.4 1145 527.8V0H-455V283.2C-396.473 263.744 -334.763 255.665 -273.2 259.4Z"
    fill="#00A550" />
  <patht
    d="M1145 0H-455V136.3C-392.7 115.4 -327.3 108.8 -262.8 117.1C-169.2 129.2 -82.3 164.8 0.5 206.7C3.1 208 5.60001 209.3 8.20001 210.6C166.6 291.7 327.9 381.5 508.5 433.8C719 494.8 939.3 482.8 1145.1 417.2V0H1145Z"
    fill="#00A851" />
  <path
    d="M-0.100037 86.3C145.7 177 296.6 269.3 469.1 325C677.7 392.4 900.4 385.8 1107 319.7C1119.8 315.6 1132.4 311.3 1145.1 306.8V0H-166.9C-110.9 21.3 -58.2 50.6 -7.20004 82C-4.80004 83.4 -2.50004 84.9 -0.100037 86.3Z"
    fill="#00AF55" />
  <path
    d="M1145 0H43C161.1 85.8 286.5 164.5 429.8 216.2C621.6 285.4 829.8 290.9 1024.8 237.3C1065.6 226.1 1105.9 212.1 1145.1 195.6V0H1145Z"
    fill="#00B759" />
  <path
    d="M942.5 154.8C989.7 144.2 1036.1 129.5 1081.1 111C1102.8 102.1 1124.1 92.2 1145 81.5V0H188.4C251.3 41.7 318.1 78.2 390.5 107.4C565.4 178.1 759.2 196.1 942.5 154.8Z"
    fill="#00C15E" />
  <path d="M860.3 72.4C935.6 59.8 1009.2 35.3 1077.1 0H354.1C511.8 71 689.7 101 860.3 72.4Z" fill="#00D065" />
</svg>